<svg width="108" height="108" viewBox="0 0 108 108" fill="none" xmlns="http://www.w3.org/2000/svg">
<g filter="url(#filter0_d_252_91)">
<rect x="4.5" y="2.5" width="99" height="99" rx="35.5" stroke="#63B8A7" shape-rendering="crispEdges"/>
</g>
<g clip-path="url(#clip0_252_91)">
<path d="M74.6534 63.04C74.5596 62.7075 74.3404 62.4243 74.042 62.2502C73.7435 62.076 73.3891 62.0246 73.0534 62.1067L69.7334 63C71.5501 60.322 72.6517 57.2238 72.9334 54C73.2058 50.9839 72.7647 47.946 71.646 45.1318C70.5273 42.3176 68.7622 39.806 66.4934 37.8C66.2312 37.5831 65.8959 37.4747 65.5562 37.497C65.2166 37.5193 64.8984 37.6707 64.6668 37.92C64.4337 38.1854 64.3154 38.5324 64.3379 38.8848C64.3604 39.2373 64.5218 39.5665 64.7868 39.8C66.7417 41.5257 68.2627 43.6876 69.2263 46.1107C70.19 48.5337 70.5693 51.1497 70.3334 53.7467C70.105 56.482 69.1876 59.115 67.6668 61.4L67.3334 58.0534C67.3586 57.8564 67.3394 57.6563 67.2773 57.4677C67.2152 57.2791 67.1118 57.1068 66.9746 56.9632C66.8374 56.8197 66.6699 56.7086 66.4843 56.6381C66.2987 56.5676 66.0997 56.5394 65.9018 56.5557C65.7039 56.5719 65.5121 56.6321 65.3405 56.732C65.1689 56.8318 65.0217 56.9687 64.9097 57.1327C64.7977 57.2966 64.7238 57.4835 64.6933 57.6797C64.6628 57.8759 64.6765 58.0765 64.7334 58.2667L65.4001 66.8534L73.7334 64.64C74.0635 64.5435 74.3436 64.3231 74.515 64.0249C74.6864 63.7268 74.736 63.3739 74.6534 63.04Z" fill="#63B8A7"/>
<path d="M35.7467 50.7733C35.9239 50.8873 36.1244 50.9602 36.3334 50.9867C36.6813 51.0323 37.0333 50.9389 37.3128 50.7267C37.5924 50.5146 37.777 50.2007 37.8267 49.8533C38.3776 45.7855 40.4449 42.076 43.6146 39.4676C46.7842 36.8592 50.8222 35.5444 54.92 35.7867L51.9334 37.8267C51.722 37.9859 51.5629 38.2043 51.4761 38.4543C51.3893 38.7042 51.3788 38.9743 51.446 39.2302C51.5132 39.4861 51.655 39.7163 51.8534 39.8913C52.0518 40.0664 52.2978 40.1785 52.56 40.2133C52.8604 40.2408 53.1612 40.1656 53.4134 40L60.52 35.12L54.44 29.0133C54.3318 28.8475 54.1881 28.7079 54.0192 28.6046C53.8503 28.5013 53.6606 28.4369 53.4637 28.4161C53.2668 28.3953 53.0678 28.4185 52.8811 28.4842C52.6943 28.5499 52.5245 28.6563 52.384 28.7958C52.2436 28.9353 52.1359 29.1043 52.0689 29.2906C52.0018 29.4768 51.9771 29.6757 51.9965 29.8727C52.0159 30.0697 52.079 30.26 52.181 30.4296C52.2831 30.5992 52.4217 30.7439 52.5867 30.8533L54.8534 33.12C50.1211 32.8937 45.476 34.4498 41.8351 37.4811C38.1941 40.5123 35.8219 44.7985 35.1867 49.4933C35.1525 49.7376 35.1868 49.9866 35.2856 50.2125C35.3845 50.4385 35.5441 50.6326 35.7467 50.7733Z" fill="#63B8A7"/>
<path d="M58.9732 67.9067C56.8911 68.5717 54.6949 68.8032 52.5199 68.5867C49.871 68.327 47.3252 67.4266 45.1021 65.9631C42.879 64.4997 41.0455 62.5171 39.7599 60.1867L43.0799 61.4267C43.3859 61.4797 43.7009 61.4243 43.9704 61.2699C44.2399 61.1156 44.4471 60.8719 44.5562 60.5811C44.6652 60.2903 44.6693 59.9705 44.5678 59.677C44.4662 59.3834 44.2654 59.1346 43.9999 58.9733L37.8799 56.7067L35.9199 56L34.4399 64.4667C34.3886 64.805 34.4693 65.1501 34.6654 65.4306C34.8614 65.711 35.1578 65.9053 35.4932 65.9733H35.7199C36.0337 65.979 36.3395 65.8739 36.5834 65.6763C36.8273 65.4788 36.9936 65.2015 37.0532 64.8933L37.6132 61.6933C39.1212 64.335 41.2394 66.5776 43.7909 68.2337C46.3424 69.8899 49.2531 70.9115 52.2799 71.2133C54.8105 71.4641 57.3656 71.1918 59.7866 70.4133C60.0948 70.2857 60.344 70.0471 60.4849 69.7447C60.6259 69.4423 60.6483 69.0981 60.5479 68.7799C60.4474 68.4618 60.2313 68.1929 59.9423 68.0263C59.6532 67.8596 59.3122 67.8075 58.9865 67.88L58.9732 67.9067Z" fill="#63B8A7"/>
<path d="M59.333 45.3334H48.6663C48.3127 45.3334 47.9736 45.4739 47.7235 45.7239C47.4735 45.9739 47.333 46.3131 47.333 46.6667V57.3334C47.333 57.687 47.4735 58.0261 47.7235 58.2762C47.9736 58.5262 48.3127 58.6667 48.6663 58.6667H59.333C59.6866 58.6667 60.0258 58.5262 60.2758 58.2762C60.5259 58.0261 60.6663 57.687 60.6663 57.3334V46.6667C60.6663 46.3131 60.5259 45.9739 60.2758 45.7239C60.0258 45.4739 59.6866 45.3334 59.333 45.3334ZM57.9997 56H49.9997V48H57.9997V56Z" fill="#63B8A7"/>
</g>
<defs>
<filter id="filter0_d_252_91" x="0" y="0" width="108" height="108" filterUnits="userSpaceOnUse" color-interpolation-filters="sRGB">
<feFlood flood-opacity="0" result="BackgroundImageFix"/>
<feColorMatrix in="SourceAlpha" type="matrix" values="0 0 0 0 0 0 0 0 0 0 0 0 0 0 0 0 0 0 127 0" result="hardAlpha"/>
<feOffset dy="2"/>
<feGaussianBlur stdDeviation="2"/>
<feComposite in2="hardAlpha" operator="out"/>
<feColorMatrix type="matrix" values="0 0 0 0 0.388235 0 0 0 0 0.721569 0 0 0 0 0.654902 0 0 0 0.2 0"/>
<feBlend mode="normal" in2="BackgroundImageFix" result="effect1_dropShadow_252_91"/>
<feBlend mode="normal" in="SourceGraphic" in2="effect1_dropShadow_252_91" result="shape"/>
</filter>
<clipPath id="clip0_252_91">
<rect width="48" height="48" fill="white" transform="translate(30 28)"/>
</clipPath>
</defs>
</svg>
