<svg width="108" height="108" viewBox="0 0 108 108" fill="none" xmlns="http://www.w3.org/2000/svg">
<g filter="url(#filter0_d_252_80)">
<rect x="4.5" y="2.5" width="99" height="99" rx="35.5" stroke="#63B8A7" shape-rendering="crispEdges"/>
</g>
<g clip-path="url(#clip0_252_80)">
<path fill-rule="evenodd" clip-rule="evenodd" d="M61.0617 46.438C61.2014 46.5773 61.3122 46.7429 61.3878 46.9251C61.4635 47.1073 61.5024 47.3027 61.5024 47.5C61.5024 47.6973 61.4635 47.8927 61.3878 48.0749C61.3122 48.2571 61.2014 48.4227 61.0617 48.562L52.0617 57.562C51.9224 57.7017 51.7568 57.8125 51.5746 57.8881C51.3924 57.9638 51.197 58.0027 50.9997 58.0027C50.8024 58.0027 50.607 57.9638 50.4248 57.8881C50.2426 57.8125 50.077 57.7017 49.9377 57.562L45.4377 53.062C45.2982 52.9225 45.1876 52.757 45.1121 52.5747C45.0367 52.3925 44.9978 52.1972 44.9978 52C44.9978 51.8028 45.0367 51.6075 45.1121 51.4252C45.1876 51.243 45.2982 51.0775 45.4377 50.938C45.5772 50.7985 45.7427 50.6879 45.9249 50.6124C46.1072 50.5369 46.3025 50.4981 46.4997 50.4981C46.6969 50.4981 46.8922 50.5369 47.0744 50.6124C47.2567 50.6879 47.4222 50.7985 47.5617 50.938L50.9997 54.379L58.9377 46.438C59.077 46.2983 59.2426 46.1875 59.4248 46.1119C59.607 46.0362 59.8024 45.9973 59.9997 45.9973C60.197 45.9973 60.3924 46.0362 60.5746 46.1119C60.7568 46.1875 60.9224 46.2983 61.0617 46.438Z" fill="#63B8A7"/>
<path d="M60.8185 35.5388L58.0555 32.7068L60.2005 30.6128L62.0665 32.5238L64.7365 32.4908C65.8923 32.4771 67.0391 32.6947 68.1096 33.1306C69.18 33.5666 70.1525 34.2123 70.9698 35.0296C71.7871 35.8469 72.4327 36.8193 72.8687 37.8898C73.3047 38.9602 73.5222 40.107 73.5085 41.2628L73.4785 43.9328L75.3865 45.7988C76.2129 46.6063 76.8696 47.5708 77.3179 48.6357C77.7662 49.7006 77.9971 50.8444 77.9971 51.9998C77.9971 53.1552 77.7662 54.299 77.3179 55.3638C76.8696 56.4287 76.2129 57.3933 75.3865 58.2008L73.4755 60.0668L73.5085 62.7368C73.5222 63.8925 73.3047 65.0394 72.8687 66.1098C72.4327 67.1802 71.7871 68.1527 70.9698 68.97C70.1525 69.7873 69.18 70.4329 68.1096 70.8689C67.0391 71.3049 65.8923 71.5225 64.7365 71.5088L62.0665 71.4788L60.2005 73.3868C59.393 74.2132 58.4285 74.8698 57.3636 75.3181C56.2987 75.7664 55.1549 75.9974 53.9995 75.9974C52.8441 75.9974 51.7004 75.7664 50.6355 75.3181C49.5706 74.8698 48.606 74.2132 47.7985 73.3868L45.9325 71.4758L43.2625 71.5088C42.1068 71.5225 40.96 71.3049 39.8895 70.8689C38.8191 70.4329 37.8466 69.7873 37.0293 68.97C36.212 68.1527 35.5664 67.1802 35.1304 66.1098C34.6944 65.0394 34.4769 63.8925 34.4905 62.7368L34.5205 60.0668L32.6125 58.2008C31.7862 57.3933 31.1295 56.4287 30.6812 55.3638C30.2329 54.299 30.002 53.1552 30.002 51.9998C30.002 50.8444 30.2329 49.7006 30.6812 48.6357C31.1295 47.5708 31.7862 46.6063 32.6125 45.7988L34.5235 43.9328L34.4905 41.2628C34.4769 40.107 34.6944 38.9602 35.1304 37.8898C35.5664 36.8193 36.212 35.8469 37.0293 35.0296C37.8466 34.2123 38.8191 33.5666 39.8895 33.1306C40.96 32.6947 42.1068 32.4771 43.2625 32.4908L45.9325 32.5208L47.7985 30.6128C48.606 29.7864 49.5706 29.1298 50.6355 28.6815C51.7004 28.2331 52.8441 28.0022 53.9995 28.0022C55.1549 28.0022 56.2987 28.2331 57.3636 28.6815C58.4285 29.1298 59.393 29.7864 60.2005 30.6128L58.0555 32.7068C57.5274 32.1661 56.8965 31.7365 56.2 31.4432C55.5035 31.1499 54.7553 30.9988 53.9995 30.9988C53.2438 30.9988 52.4956 31.1499 51.7991 31.4432C51.1025 31.7365 50.4717 32.1661 49.9435 32.7068L47.1835 35.5388L43.2235 35.4908C42.4681 35.4823 41.7185 35.625 41.019 35.9103C40.3194 36.1956 39.6839 36.6178 39.1498 37.1522C38.6157 37.6866 38.1938 38.3223 37.9089 39.022C37.6239 39.7217 37.4817 40.4713 37.4905 41.2268L37.5385 45.1808L34.7065 47.9438C34.1659 48.4719 33.7363 49.1028 33.443 49.7993C33.1497 50.4959 32.9986 51.244 32.9986 51.9998C32.9986 52.7556 33.1497 53.5037 33.443 54.2003C33.7363 54.8968 34.1659 55.5277 34.7065 56.0558L37.5385 58.8158L37.4905 62.7758C37.4821 63.5312 37.6247 64.2808 37.91 64.9804C38.1953 65.6799 38.6176 66.3154 39.1519 66.8495C39.6863 67.3836 40.322 67.8055 41.0217 68.0905C41.7215 68.3754 42.4711 68.5176 43.2265 68.5088L47.1805 68.4608L49.9435 71.2928C50.4717 71.8334 51.1025 72.263 51.7991 72.5563C52.4956 72.8496 53.2438 73.0007 53.9995 73.0007C54.7553 73.0007 55.5035 72.8496 56.2 72.5563C56.8965 72.263 57.5274 71.8334 58.0555 71.2928L60.8155 68.4608L64.7755 68.5088C65.531 68.5172 66.2805 68.3746 66.9801 68.0893C67.6797 67.804 68.3152 67.3818 68.8493 66.8474C69.3834 66.313 69.8053 65.6773 70.0902 64.9776C70.3752 64.2779 70.5174 63.5282 70.5085 62.7728L70.4605 58.8188L73.2925 56.0558C73.8332 55.5277 74.2628 54.8968 74.5561 54.2003C74.8494 53.5037 75.0005 52.7556 75.0005 51.9998C75.0005 51.244 74.8494 50.4959 74.5561 49.7993C74.2628 49.1028 73.8332 48.4719 73.2925 47.9438L70.4605 45.1838L70.5085 41.2238C70.517 40.4683 70.3744 39.7188 70.0891 39.0192C69.8037 38.3196 69.3815 37.6841 68.8471 37.1501C68.3128 36.616 67.6771 36.1941 66.9773 35.9091C66.2776 35.6242 65.528 35.4819 64.7725 35.4908L60.8185 35.5388Z" fill="#63B8A7"/>
</g>
<defs>
<filter id="filter0_d_252_80" x="0" y="0" width="108" height="108" filterUnits="userSpaceOnUse" color-interpolation-filters="sRGB">
<feFlood flood-opacity="0" result="BackgroundImageFix"/>
<feColorMatrix in="SourceAlpha" type="matrix" values="0 0 0 0 0 0 0 0 0 0 0 0 0 0 0 0 0 0 127 0" result="hardAlpha"/>
<feOffset dy="2"/>
<feGaussianBlur stdDeviation="2"/>
<feComposite in2="hardAlpha" operator="out"/>
<feColorMatrix type="matrix" values="0 0 0 0 0.388235 0 0 0 0 0.721569 0 0 0 0 0.654902 0 0 0 0.2 0"/>
<feBlend mode="normal" in2="BackgroundImageFix" result="effect1_dropShadow_252_80"/>
<feBlend mode="normal" in="SourceGraphic" in2="effect1_dropShadow_252_80" result="shape"/>
</filter>
<clipPath id="clip0_252_80">
<rect width="48" height="48" fill="white" transform="translate(30 28)"/>
</clipPath>
</defs>
</svg>
